<?xml version="1.0" encoding="UTF-8" standalone="no"?>
<svg
   version="1.0"
   width="505pt"
   height="505pt"
   viewBox="0 0 505 505"
   style=""
   preserveAspectRatio="xMidYMid meet"
   id="svg24"
   sodipodi:docname="ImageToStl.com_logo.svg"
   inkscape:version="1.4 (e7c3feb100, 2024-10-09)"
   xmlns:inkscape="http://www.inkscape.org/namespaces/inkscape"
   xmlns:sodipodi="http://sodipodi.sourceforge.net/DTD/sodipodi-0.dtd"
   xmlns="http://www.w3.org/2000/svg"
   xmlns:svg="http://www.w3.org/2000/svg">
  <defs
     id="defs24" />
  <sodipodi:namedview
     id="namedview24"
     pagecolor="#ffffff"
     bordercolor="#000000"
     borderopacity="0.25"
     inkscape:showpageshadow="2"
     inkscape:pageopacity="0.0"
     inkscape:pagecheckerboard="0"
     inkscape:deskcolor="#d1d1d1"
     inkscape:document-units="pt"
     inkscape:zoom="0.4158628"
     inkscape:cx="330.63789"
     inkscape:cy="348.67269"
     inkscape:window-width="1920"
     inkscape:window-height="1010"
     inkscape:window-x="0"
     inkscape:window-y="40"
     inkscape:window-maximized="1"
     inkscape:current-layer="svg24" />
  <circle
     style="fill:#b6f7b9;fill-opacity:1;fill-rule:evenodd;stroke:#a2e5a4;stroke-width:4;stroke-linecap:round;stroke-linejoin:round;stroke-dasharray:none;stroke-opacity:1;paint-order:markers fill stroke"
     id="path25"
     cx="252.85732"
     cy="252.82527"
     r="250" />
  <g
     fill="#00121FFF"
     stroke="#00121FFF"
     id="g6">
    <path
       d="M 189.000 187.000 L 172.500 187.500 172.237 221.933 C 172.031 248.814 172.250 256.541 173.237 257.167 C 174.692 258.092 274.032 258.309 276.418 257.393 C 278.469 256.606 278.469 252.394 276.418 251.607 C 275.548 251.273 253.048 251.000 226.418 251.000 L 178.000 251.000 178.000 221.994 L 178.000 192.987 251.250 193.244 L 324.500 193.500 325.000 217.500 L 325.500 241.500 328.000 241.500 L 330.500 241.500 330.766 214.725 C 330.975 193.785 330.756 187.843 329.761 187.462 C 327.985 186.780 209.121 186.390 189.000 187.000 "
       id="path6" />
  </g>
  <g
     fill="#00121FFF"
     stroke="#00121FFF"
     id="g8">
    <path
       d="M 261.893 400.497 C 258.565 402.306 256.328 405.734 255.461 410.354 C 253.946 418.430 257.610 424.904 264.937 427.099 C 268.352 428.122 269.396 428.013 272.932 426.263 L 277.000 424.251 277.000 426.903 C 277.000 433.346 270.556 436.513 263.469 433.551 C 259.831 432.032 259.509 432.047 257.734 433.822 C 255.893 435.663 255.934 435.742 259.677 437.591 C 267.932 441.668 278.510 439.417 281.671 432.910 C 282.772 430.642 283.317 420.453 283.097 406.250 C 283.004 400.276 282.890 400.000 280.500 400.000 C 278.944 400.000 278.000 400.567 278.000 401.500 C 278.000 403.432 277.699 403.396 273.774 401.004 C 269.963 398.680 265.580 398.493 261.893 400.497 M 273.986 405.992 C 276.342 407.253 278.281 413.031 277.454 416.326 C 275.890 422.557 267.513 424.460 263.284 419.544 C 258.490 413.971 261.792 405.000 268.638 405.000 C 270.560 405.000 272.966 405.447 273.986 405.992 "
       id="path8" />
  </g>
  <g
     fill="#00121FFF"
     stroke="#00121FFF"
     id="g9">
    <path
       d="M 173.750 265.080 C 171.615 266.323 171.450 269.575 173.482 270.355 C 175.452 271.111 274.499 271.129 276.467 270.374 C 278.480 269.602 278.444 265.384 276.418 264.607 C 273.599 263.525 175.645 263.977 173.750 265.080 "
       id="path9" />
  </g>
  <g
     fill="#00121FFF"
     stroke="#00121FFF"
     id="g10"
     style="display:inline;fill:#000000;fill-opacity:1">
    <path
       d="M 298.02,400.752 C 284.39,407.6 289.241,428 304.5,428 c 8.576,0 14.5,-6.193 14.5,-15.158 0,-10.266 -11.463,-16.872 -20.98,-12.09 m 12.907,6.883 c 3.065,3.895 2.725,8.867 -0.85,12.442 -3.625,3.625 -6.968,3.727 -11,0.334 -3.488,-2.934 -4.016,-6.694 -1.598,-11.37 1.726,-3.338 2.731,-3.855 7.698,-3.962 2.837,-0.061 4.152,0.523 5.75,2.556"
       id="path10"
       style="fill:#000000;fill-opacity:1" />
  </g>
  <g
     fill="#00121FFF"
     stroke="#00121FFF"
     id="g11">
    <path
       d="m 228.241,400.995 c -9.893,6.031 -9.591,21.454 0.502,25.671 10.436,4.36 21.257,-2.496 21.257,-13.468 0,-10.522 -12.77,-17.684 -21.759,-12.203 m 11.214,4.626 c 2.112,0.811 4.545,5.578 4.545,8.906 0,3.197 -4.964,8.473 -7.973,8.473 -2.898,0 -7.647,-2.568 -8.406,-4.545 -3.186,-8.302 3.827,-15.907 11.834,-12.834"
       id="path11"
       style="display:inline" />
  </g>
  <g
     fill="#00121FFF"
     stroke="#00121FFF"
     id="g12">
    <path
       d="M 172.667 278.667 C 171.431 279.903 171.988 282.781 173.582 283.393 C 175.648 284.186 274.352 284.186 276.418 283.393 C 277.288 283.059 278.000 281.709 278.000 280.393 L 278.000 278.000 225.667 278.000 C 196.883 278.000 173.033 278.300 172.667 278.667 "
       id="path12" />
  </g>
  <g
     fill="#00121FFF"
     stroke="#00121FFF"
     id="g13">
    <path
       d="M 293.250 251.662 C 292.563 251.940 292.000 253.246 292.000 254.564 C 292.000 257.873 293.640 258.118 313.500 257.785 L 330.500 257.500 330.837 255.113 C 331.023 253.800 330.573 252.345 329.837 251.878 C 328.432 250.987 295.406 250.792 293.250 251.662 "
       id="path13" />
  </g>
  <g
     fill="#00121FFF"
     stroke="#00121FFF"
     id="g14">
    <path
       d="M 293.250 264.662 C 291.458 265.386 291.706 269.673 293.582 270.393 C 296.301 271.436 327.008 271.066 329.066 269.965 C 330.130 269.395 331.000 268.286 331.000 267.500 C 331.000 266.714 330.130 265.605 329.066 265.035 C 327.134 264.001 295.699 263.674 293.250 264.662 "
       id="path14" />
  </g>
  <g
     fill="#00121FFF"
     stroke="#00121FFF"
     id="g15">
    <path
       d="M 208.833 406.000 C 208.742 415.900 208.629 424.785 208.583 425.744 C 208.522 427.031 209.284 427.489 211.500 427.494 L 214.500 427.500 214.771 407.750 L 215.042 388.000 212.021 388.000 L 209.000 388.000 208.833 406.000 "
       id="path15" />
  </g>
  <g
     fill="#00121FFF"
     stroke="#00121FFF"
     id="g16">
    <path
       d="M 293.692 277.835 C 292.383 278.077 291.969 278.905 292.192 280.835 L 292.500 283.500 310.891 283.500 C 327.207 283.500 329.405 283.306 330.369 281.778 C 332.657 278.149 329.899 277.500 312.198 277.500 C 303.014 277.500 294.686 277.651 293.692 277.835 "
       id="path16" />
  </g>
  <g
     fill="#00121FFF"
     stroke="#00121FFF"
     id="g20">
    <path
       d="M 191.200 419.200 C 188.353 422.047 190.956 428.000 195.048 428.000 C 196.096 428.000 197.703 426.857 198.619 425.459 C 200.962 421.883 199.193 418.000 195.221 418.000 C 193.670 418.000 191.860 418.540 191.200 419.200 "
       id="path20" />
  </g>
  <g
     fill="#00121FFF"
     stroke="#00121FFF"
     id="g21">
    <path
       d="M 187.385 139.744 C 185.519 141.009 184.735 144.975 186.040 146.548 C 187.983 148.889 192.913 148.391 193.937 145.750 C 195.496 141.732 190.801 137.429 187.385 139.744 "
       id="path21" />
  </g>
  <g
     fill="#00121FFF"
     stroke="#00121FFF"
     id="g22">
    <path
       d="M 152.200 140.200 C 150.103 142.297 150.736 146.962 153.250 147.937 C 157.917 149.747 161.738 144.578 158.433 140.926 C 156.448 138.733 153.957 138.443 152.200 140.200 "
       id="path22" />
  </g>
  <g
     fill="#00121FFF"
     stroke="#00121FFF"
     id="g23">
    <path
       d="M 169.518 140.625 C 166.078 144.065 169.391 148.872 174.345 147.628 C 179.122 146.429 177.221 139.000 172.137 139.000 C 171.590 139.000 170.412 139.731 169.518 140.625 "
       id="path23" />
  </g>
  <g
     fill="#B6C1B9FF"
     stroke="#B6C1B9FF"
     id="g24" />
  <g
     fill="#00121FFF"
     stroke="#00121FFF"
     id="g2">
    <path
       d="m 144.517,126.238 c -4.84,1.006 -8.056,3.284 -10.749,7.615 l -2.268,3.647 -0.304,89 c -0.21,61.641 0.029,90.139 0.777,92.705 1.396,4.787 5.569,9.706 9.698,11.431 2.582,1.079 12.059,1.364 45.297,1.364 32.971,0 42.027,0.269 42.009,1.25 -0.012,0.688 -0.827,4.4 -1.81,8.25 l -1.786,7 -9.281,0.5 c -8.638,0.465 -9.447,0.694 -11.69,3.306 -3.642,4.24 -2.936,11.004 1.503,14.412 1.19,0.913 12.425,1.226 44.882,1.25 l 43.296,0.032 2.454,-2.455 c 3.918,-3.917 3.655,-9.833 -0.614,-13.795 -2.738,-2.541 -3.593,-2.75 -11.264,-2.75 h -8.301 l -1.696,-7.25 c -0.933,-3.987 -1.69,-7.812 -1.683,-8.5 0.01,-0.98 9.206,-1.25 42.612,-1.25 48.415,0 47.451,0.145 52.536,-7.874 L 371,319.608 v -91.156 -91.156 l -2.274,-3.374 c -2.87,-4.259 -8.242,-7.921 -11.624,-7.925 -1.431,-0.001 -49.05,-0.114 -105.819,-0.25 -56.769,-0.136 -104.814,0.085 -106.766,0.491 M 364.362,207.5 c -0.076,25.3 -0.189,57.588 -0.25,71.75 L 364,305 H 251 138 v -71.333 c 0,-39.234 0.302,-71.636 0.671,-72.005 0.369,-0.369 51.331,-0.556 113.25,-0.416 l 112.579,0.254 -0.138,46 m -3.006,-71.605 c 3.149,3.149 4.408,9.22 3.222,15.543 L 363.909,155 H 250.955 138 l 0.004,-7.25 c 0.004,-8.775 2.192,-13.225 7.131,-14.505 1.766,-0.458 50.494,-0.693 108.285,-0.522 l 105.074,0.309 2.862,2.863 m 3.009,176.613 c 1.081,2.817 -1.748,8.84 -5.263,11.205 L 355.704,326 H 251.82 c -113.773,0 -109.091,0.245 -112.254,-5.872 -1.621,-3.134 -2.063,-7.297 -0.899,-8.461 C 139.033,311.3 189.835,311 251.56,311 c 99.093,0 112.294,0.176 112.805,1.508 M 266.571,338 c 0.674,3.025 1.754,8.088 2.398,11.25 l 1.173,5.75 h 9.738 c 10.906,0 14.55,1.366 12.511,4.691 -1.034,1.687 -3.727,1.828 -40,2.087 -21.39,0.153 -39.903,0.032 -41.141,-0.269 -2.666,-0.648 -3.153,-4.949 -0.668,-5.902 0.87,-0.334 5.802,-0.607 10.961,-0.607 h 9.38 l 0.962,-3.75 c 0.529,-2.062 1.719,-7.249 2.644,-11.526 l 1.683,-7.776 14.566,0.276 14.566,0.276 1.227,5.5"
       id="path2"
       style="display:inline" />
  </g>
</svg>
